# xmcd CD database file
#
# Track frame offsets:
#	150
#	14189
#	32389
#	47751
#	70890
#	88217
#	103369
#	123771
#	135411
#	157549
#	174615
#	196130
#	212565
#	225195
#	240963
#	251578
#	269728
#
# Disc length: 3789 seconds
#
# Revision: 0
# Processed by: cddbd v1.5.2PL0 Copyright (c) Steve Scherf et al.
# Submitted via: CDex 1.70beta2
#
DISCID=dd0ecb11
DTITLE=Ella Fitzgerald - Jazz lady
DYEAR=1900
DGENRE=Jazz
TTITLE0=Night and day
TTITLE1=I get a kick out of you
TTITLE2=Fascination rhythm
TTITLE3=In a mellow tone
TTITLE4=The man I love
TTITLE5=The lady is a tramp
TTITLE6=Someone to watch over me
TTITLE7=Baby don't you go way mad
TTITLE8=Summertime
TTITLE9=Can't we be fiends?
TTITLE10=I won't dance
TTITLE11=Lush life
TTITLE12=You're an old smoothie
TTITLE13=Black coffee
TTITLE14=A-tisket a-tasket
TTITLE15=Oh, lady be good
TTITLE16=Don't worry about me
EXTD=
EXTT0=
EXTT1=
EXTT2=
EXTT3=
EXTT4=
EXTT5=
EXTT6=
EXTT7=
EXTT8=
EXTT9=
EXTT10=
EXTT11=
EXTT12=
EXTT13=
EXTT14=
EXTT15=
EXTT16=
PLAYORDER=
